<svg xmlns="http://www.w3.org/2000/svg" width="1024" height="1024" viewBox="0 0 1024 1024">
<g>
<path d="M 433.47 531.95 C418.71,537.55 404.43,534.33 392.91,522.81 C371.80,501.70 377.49,465.07 403.80,452.70 C409.85,449.85 411.42,449.55 420.00,449.56 C428.15,449.57 430.31,449.94 435.22,452.21 C438.36,453.67 443.20,456.98 445.97,459.57 L 451.00 464.27 L 451.00 393.00 L 464.01 393.00 L 463.50 532.50 L 451.50 532.50 L 451.20 526.25 C451.04,522.81 450.63,520.00 450.30,520.00 C449.97,520.00 447.39,522.18 444.57,524.84 C441.33,527.91 437.26,530.52 433.47,531.95 ZM 548.12 529.36 C542.40,532.07 540.28,532.53 532.50,532.69 C522.22,532.92 518.11,532.10 510.83,528.41 C493.51,519.64 484.09,499.89 488.32,481.21 C489.22,477.20 491.08,472.01 492.46,469.67 C501.72,453.86 519.46,445.80 538.19,448.89 C547.41,450.42 554.13,453.97 561.23,461.07 C569.25,469.09 572.27,475.91 572.82,487.25 L 573.24 496.00 L 537.12 496.00 C508.88,496.00 501.00,496.27 501.02,497.25 C501.07,499.84 504.93,506.92 508.39,510.75 C510.47,513.05 514.60,515.90 518.24,517.54 C529.67,522.68 541.16,520.72 550.63,511.99 C554.82,508.13 555.18,508.00 561.98,508.00 C565.84,508.00 569.00,508.37 569.00,508.83 C569.00,510.57 562.74,519.00 558.83,522.53 C556.58,524.56 551.77,527.64 548.12,529.36 ZM 357.00 520.03 L 357.00 532.00 L 282.00 532.00 L 282.00 405.00 L 357.00 405.00 L 357.00 416.97 L 294.50 417.50 L 294.50 462.50 L 324.75 462.76 L 355.00 463.03 L 355.00 474.97 L 324.75 475.24 L 294.50 475.50 L 294.50 519.50 L 325.75 519.76 ZM 416.33 520.97 C429.06,523.52 441.64,517.11 448.24,504.72 C451.46,498.68 451.49,484.38 448.29,478.38 C445.04,472.29 441.35,468.29 436.14,465.23 C431.97,462.77 430.55,462.50 422.00,462.50 C413.35,462.50 412.08,462.75 407.77,465.33 C394.19,473.47 389.09,490.23 395.84,504.51 C400.00,513.30 407.30,519.16 416.33,520.97 ZM 608.08 508.50 L 607.50 531.50 L 595.00 532.10 L 595.00 450.00 L 608.00 450.00 L 608.00 462.27 L 612.86 457.73 C620.87,450.24 624.98,448.61 635.56,448.72 C641.13,448.77 645.99,449.39 648.20,450.31 C653.66,452.59 659.50,458.44 662.13,464.26 C664.44,469.36 664.51,470.34 664.80,500.80 L 665.11 532.10 L 658.80 531.80 L 652.50 531.50 L 652.00 501.50 C651.45,468.26 651.21,466.99 644.70,462.89 C642.06,461.23 640.26,460.94 634.36,461.28 C625.75,461.77 619.47,464.99 614.95,471.23 C609.57,478.66 608.72,483.27 608.08,508.50 ZM 501.02 483.75 C501.00,484.72 507.36,485.00 529.53,485.00 C554.69,485.00 558.13,484.81 558.67,483.41 C560.28,479.21 550.52,467.11 542.50,463.36 C538.65,461.56 535.77,461.02 530.00,461.02 C520.75,461.02 514.26,463.73 508.65,469.96 C504.97,474.04 501.07,481.09 501.02,483.75 Z" fill="rgb(86,32,39)"/>
<path d="M 581.56 632.00 C580.95,639.00 580.62,640.00 578.93,640.00 C577.08,640.00 577.00,639.08 577.00,618.50 L 577.00 597.00 L 585.25 597.00 C591.67,597.01 594.21,597.44 596.70,598.96 C605.54,604.35 605.00,617.31 595.75,621.89 L 591.93 623.78 L 597.47 631.14 C600.51,635.18 603.00,638.83 603.00,639.25 C603.00,639.66 601.92,640.00 600.59,640.00 C598.74,640.00 596.84,638.16 592.34,632.03 C588.28,626.49 585.86,624.06 584.38,624.03 C582.45,624.00 582.20,624.72 581.56,632.00 ZM 512.68 633.99 C510.66,639.06 507.98,641.39 506.65,639.24 C505.85,637.95 522.72,596.00 524.04,596.00 C524.46,596.00 525.30,597.42 525.90,599.15 C527.40,603.44 527.28,603.85 525.35,601.09 L 523.71 598.74 L 522.39 601.12 C520.55,604.44 520.54,607.63 522.37,606.11 C523.13,605.48 524.55,605.27 525.54,605.65 C526.77,606.12 527.10,605.97 526.61,605.17 C526.21,604.53 526.29,604.00 526.79,604.00 C527.80,604.00 528.76,606.10 535.89,624.00 L 535.91 624.03 C540.51,635.58 541.65,638.44 540.78,639.32 C540.50,639.61 539.99,639.68 539.33,639.79 C537.48,640.07 536.82,639.20 534.93,634.02 L 532.71 627.93 L 514.86 628.50 ZM 462.62 637.60 C456.49,640.45 451.88,640.60 446.50,638.10 C435.29,632.92 430.94,620.11 436.40,608.38 C437.77,605.44 440.39,602.04 442.55,600.39 C445.72,597.98 447.44,597.47 453.41,597.18 C459.89,596.86 460.87,597.08 464.82,599.75 C468.73,602.39 472.98,607.33 472.99,609.25 C473.01,610.96 468.01,609.88 466.97,607.95 C465.06,604.38 459.96,602.01 454.18,602.00 C447.66,602.00 445.76,602.96 441.97,608.20 C438.07,613.58 437.76,621.87 441.27,627.08 C447.75,636.69 459.19,637.51 466.45,628.88 C468.85,626.03 473.00,624.93 473.00,627.16 C473.00,629.75 467.42,635.36 462.62,637.60 ZM 650.77 620.24 C650.53,637.65 650.33,639.51 648.75,639.81 C647.78,640.00 646.77,639.55 646.50,638.82 C646.24,638.10 645.90,629.40 645.76,619.50 L 645.50 601.50 L 640.75 601.20 C636.82,600.94 636.00,600.56 636.00,598.95 C636.00,597.13 636.78,597.00 648.00,597.00 C659.33,597.00 660.00,597.11 660.00,599.00 C660.00,600.70 659.33,601.00 655.52,601.00 L 651.04 601.00 ZM 509.78 635.44 C510.11,635.78 511.32,634.13 512.45,631.78 L 514.50 627.50 L 533.47 627.50 L 535.51 631.81 C536.64,634.17 537.82,635.85 538.14,635.53 C538.67,634.99 534.47,622.14 533.42,621.09 C533.18,620.84 532.32,621.51 531.52,622.57 C530.24,624.27 530.06,624.30 530.03,622.81 C529.98,620.28 524.89,607.00 523.97,607.00 C523.11,607.00 517.67,620.57 517.67,622.71 C517.67,623.42 517.24,624.00 516.72,624.00 C516.19,624.00 515.99,623.13 516.27,622.07 C516.89,619.69 514.49,620.34 513.47,622.83 C511.06,628.76 509.26,634.92 509.78,635.44 ZM 581.86 618.25 C581.94,618.66 584.41,619.00 587.37,619.00 C594.87,619.00 598.00,616.47 598.00,610.43 C598.00,604.01 595.64,602.00 588.11,602.00 C584.16,602.00 582.05,602.43 581.71,603.31 C581.29,604.41 581.41,615.73 581.86,618.25 ZM 729.45 282.36 C732.56,289.44 734.91,295.42 734.67,295.66 C734.43,295.91 732.77,292.59 730.99,288.30 C723.37,269.98 705.70,236.09 703.66,235.89 C703.02,235.83 682.47,235.71 658.00,235.64 L 613.50 235.50 L 613.22 223.30 C612.97,212.45 613.14,211.00 614.72,210.17 C615.70,209.65 621.67,208.98 628.00,208.68 L 639.50 208.13 L 627.82 209.46 C621.39,210.20 615.65,211.10 615.07,211.46 C613.74,212.28 613.65,230.90 614.97,232.98 C615.78,234.27 621.84,234.42 659.71,234.14 C664.69,234.10 669.12,234.05 673.06,234.01 C696.20,233.77 702.59,233.70 705.98,236.85 C707.84,238.59 708.80,241.30 711.16,245.50 C718.03,257.77 723.24,268.27 729.45,282.36 ZM 594.75 633.54 C597.28,636.60 599.00,637.78 599.00,636.46 C599.00,635.66 595.89,630.88 593.29,627.67 C590.43,624.14 590.42,623.19 593.25,622.02 C599.90,619.27 603.83,609.52 600.42,604.25 C598.06,600.63 597.12,601.66 598.66,606.15 C601.58,614.62 598.00,619.57 588.69,619.93 C580.70,620.23 580.00,619.43 580.00,609.94 C580.00,605.64 580.42,601.86 580.94,601.54 C581.46,601.22 584.84,600.87 588.44,600.76 C599.38,600.43 595.72,598.04 584.25,598.01 L 578.00 598.00 L 578.00 616.50 C578.00,628.17 578.37,635.00 579.00,635.00 C579.55,635.00 580.00,632.61 580.00,629.70 C580.00,621.38 583.10,619.77 588.70,625.20 C590.52,626.95 592.00,628.80 592.00,629.31 C592.00,629.81 593.24,631.72 594.75,633.54 ZM 342.00 638.07 C342.00,639.87 341.19,640.00 330.00,640.00 L 318.00 640.00 L 318.42 619.50 L 318.75 629.25 L 319.07 639.00 L 321.98 639.00 C325.77,639.00 326.81,637.24 323.50,636.41 C320.97,635.78 320.93,635.60 321.21,628.13 L 321.50 620.50 L 329.26 620.00 C333.53,619.72 337.02,619.05 337.02,618.50 C337.02,617.95 333.53,617.28 329.26,617.00 L 321.50 616.50 L 321.50 600.50 L 330.28 600.21 C342.08,599.82 340.63,598.00 328.52,598.00 C321.97,598.00 319.02,598.38 318.66,599.25 C318.36,600.00 318.13,599.80 318.08,598.75 C318.01,597.18 319.21,597.00 330.00,597.00 C341.26,597.00 342.00,597.12 342.00,598.96 C342.00,600.76 341.18,600.95 332.25,601.21 L 322.50 601.50 L 322.21 608.75 L 321.91 616.00 L 331.46 616.00 C340.97,616.00 341.00,616.01 341.00,618.50 C341.00,620.99 340.97,621.00 331.50,621.00 L 322.00 621.00 L 322.00 634.88 L 326.49 635.55 C328.96,635.92 332.58,635.93 334.54,635.56 C339.15,634.69 342.00,635.65 342.00,638.07 ZM 694.92 835.70 C683.73,852.53 683.32,852.22 691.82,833.39 C695.02,826.30 698.93,817.35 700.50,813.50 C702.07,809.65 703.75,806.05 704.22,805.51 C705.32,804.24 703.07,810.48 699.02,819.87 C694.29,830.86 696.51,831.39 703.26,820.89 C709.77,810.77 721.80,790.09 728.95,776.75 C731.82,771.39 734.34,767.00 734.55,767.00 C736.62,767.00 710.46,812.36 694.92,835.70 ZM 369.00 235.06 C369.00,236.93 368.14,237.00 345.75,236.88 C331.04,236.81 324.19,236.48 327.09,235.99 C335.47,234.57 367.01,231.89 368.01,232.51 C368.56,232.84 369.00,233.99 369.00,235.06 ZM 647.69 635.25 C648.14,635.94 648.72,628.85 649.00,619.50 C649.28,610.15 649.86,601.94 650.31,601.25 C650.75,600.56 652.44,600.00 654.06,600.00 C655.68,600.00 657.00,599.55 657.00,599.00 C657.00,598.40 653.11,598.00 647.33,598.00 C637.62,598.00 635.74,598.79 642.74,599.92 L 646.50 600.53 L 647.25 610.51 C647.67,616.01 647.75,623.54 647.44,627.25 C647.13,630.96 647.24,634.56 647.69,635.25 ZM 438.61 606.57 C437.78,608.73 438.89,608.31 442.60,605.04 C448.88,599.53 458.92,599.03 464.50,603.94 C467.76,606.81 469.00,607.26 469.00,605.57 C469.00,604.71 467.13,602.66 464.85,601.01 C461.30,598.44 459.80,598.00 454.51,598.00 C448.94,598.00 447.87,598.36 443.74,601.57 C441.22,603.54 438.91,605.79 438.61,606.57 ZM 399.00 626.00 C399.00,627.87 398.33,628.00 389.00,628.00 C379.67,628.00 379.00,627.87 379.00,626.00 C379.00,624.13 379.67,624.00 389.00,624.00 C398.33,624.00 399.00,624.13 399.00,626.00 ZM 444.12 634.97 C448.56,638.19 449.56,638.53 450.43,637.12 C450.73,636.63 449.63,635.67 447.98,634.99 C446.34,634.31 443.26,631.97 441.15,629.80 C437.37,625.90 437.31,625.73 437.43,618.42 C437.54,610.80 436.66,608.73 435.51,613.95 C434.61,618.05 435.84,625.20 438.06,628.87 C439.09,630.56 441.82,633.30 444.12,634.97 ZM 456.51 636.98 C455.14,639.20 460.93,637.84 464.80,635.03 C468.75,632.17 472.95,626.76 469.85,628.53 C469.11,628.95 467.59,630.11 466.49,631.10 C465.38,632.09 462.82,633.59 460.80,634.44 C458.79,635.28 456.85,636.43 456.51,636.98 ZM 355.50 235.00 C355.12,235.62 357.01,236.00 360.50,236.00 C363.99,236.00 365.88,235.62 365.50,235.00 C365.16,234.45 362.91,234.00 360.50,234.00 C358.09,234.00 355.84,234.45 355.50,235.00 ZM 328.50 638.00 C328.84,638.55 330.89,639.00 333.06,639.00 C335.23,639.00 337.00,638.55 337.00,638.00 C337.00,637.45 334.95,637.00 332.44,637.00 C329.66,637.00 328.12,637.39 328.50,638.00 Z" fill="rgb(199,126,101)"/>
<path d="M 729.45 282.36 C723.24,268.27 718.03,257.77 711.16,245.50 C708.80,241.30 707.84,238.59 705.98,236.85 C702.59,233.70 696.20,233.77 673.06,234.01 C669.12,234.05 664.69,234.10 659.71,234.14 C621.84,234.42 615.78,234.27 614.97,232.98 C613.65,230.90 613.74,212.28 615.07,211.46 C615.65,211.10 621.39,210.20 627.82,209.46 L 639.50 208.13 L 628.00 208.68 C626.49,208.75 625.01,208.84 623.60,208.95 C627.17,208.63 631.51,208.33 636.06,208.08 C655.05,207.04 672.14,205.62 725.95,200.60 C740.50,199.24 752.73,198.33 753.13,198.58 C754.58,199.48 770.94,231.84 775.84,243.50 C796.26,292.13 809.07,358.49 810.87,425.00 C812.43,482.71 808.30,538.73 799.41,580.50 C798.59,584.35 797.46,589.97 796.89,593.00 C796.32,596.03 794.31,604.96 792.40,612.85 C779.29,667.27 759.45,720.23 733.56,770.16 C734.50,768.14 734.88,767.00 734.55,767.00 C734.34,767.00 731.82,771.39 728.95,776.75 C721.80,790.09 709.77,810.77 703.26,820.89 C696.51,831.39 694.29,830.86 699.02,819.87 C702.98,810.69 705.22,804.52 704.29,805.44 C704.40,805.25 704.51,805.10 704.59,805.00 C706.07,803.18 711.29,789.85 718.69,769.00 C745.69,692.94 760.99,625.42 768.11,551.00 C771.00,520.70 771.26,469.21 768.64,442.00 C766.52,419.85 765.31,410.00 763.39,399.14 C762.55,394.39 761.45,388.02 760.95,385.00 C756.83,360.08 740.46,304.73 734.53,295.69 C734.46,295.58 734.38,295.44 734.28,295.28 C734.48,295.58 734.61,295.72 734.67,295.66 C734.91,295.42 732.56,289.44 729.45,282.36 ZM 389.97 291.02 C385.67,294.09 380.64,293.62 376.42,289.75 C371.28,285.03 370.79,280.02 374.90,274.00 L 377.96 269.50 L 378.00 204.50 C378.02,150.15 378.28,138.43 379.54,133.00 C388.96,92.47 413.65,64.28 449.00,53.71 C464.69,49.02 468.54,48.54 490.50,48.52 C513.80,48.50 521.40,49.46 535.50,54.24 C562.92,63.52 581.76,79.64 593.81,104.13 C603.81,124.42 603.38,120.32 603.98,201.03 L 604.50 271.55 L 606.75 274.41 C612.40,281.59 607.05,293.00 598.04,293.00 C587.02,293.00 582.16,280.59 590.00,272.50 L 593.08 269.32 L 592.50 130.50 L 589.66 122.50 C584.56,108.10 578.59,97.80 570.07,88.66 C551.19,68.41 526.11,59.00 491.01,59.00 C476.55,59.00 463.61,60.55 454.00,63.44 C427.09,71.51 407.83,88.62 396.78,114.27 C394.99,118.43 393.61,121.57 392.55,124.82 C389.01,135.65 389.01,147.63 389.01,202.06 L 389.01 205.00 L 389.00 270.51 L 391.87 273.21 C397.24,278.28 396.37,286.46 389.97,291.02 ZM 581.25 235.33 C579.90,236.15 399.52,237.25 398.75,236.45 C398.34,236.02 398.00,234.39 398.00,232.83 C398.00,230.57 398.45,230.00 400.25,229.99 C401.49,229.98 412.17,229.09 424.00,228.01 C435.83,226.93 460.35,224.70 478.50,223.05 C496.65,221.40 526.09,218.69 543.92,217.02 C561.74,215.36 577.61,214.00 579.17,214.00 L 582.00 214.00 L 582.00 224.44 C582.00,230.18 581.66,235.09 581.25,235.33 ZM 594.75 633.54 C593.24,631.72 592.00,629.81 592.00,629.31 C592.00,628.80 590.52,626.95 588.70,625.20 C583.10,619.77 580.00,621.38 580.00,629.70 C580.00,632.61 579.55,635.00 579.00,635.00 C578.37,635.00 578.00,628.17 578.00,616.50 L 578.00 598.00 L 584.25 598.01 C595.72,598.04 599.38,600.43 588.44,600.76 C584.84,600.87 581.46,601.22 580.94,601.54 C580.42,601.86 580.00,605.64 580.00,609.94 C580.00,619.43 580.70,620.23 588.69,619.93 C598.00,619.57 601.58,614.62 598.66,606.15 C597.12,601.66 598.06,600.63 600.42,604.25 C603.83,609.52 599.90,619.27 593.25,622.02 C590.42,623.19 590.43,624.14 593.29,627.67 C595.89,630.88 599.00,635.66 599.00,636.46 C599.00,637.78 597.28,636.60 594.75,633.54 ZM 318.42 619.50 L 318.00 640.00 L 317.91 640.00 L 318.21 618.50 L 318.46 599.62 C318.53,599.55 318.59,599.42 318.66,599.25 C319.02,598.38 321.97,598.00 328.52,598.00 C340.63,598.00 342.08,599.82 330.28,600.21 L 321.50 600.50 L 321.50 616.50 L 329.26 617.00 C333.53,617.28 337.02,617.95 337.02,618.50 C337.02,619.05 333.53,619.72 329.26,620.00 L 321.50 620.50 L 321.21 628.13 C320.93,635.60 320.97,635.78 323.50,636.41 C326.81,637.24 325.77,639.00 321.98,639.00 L 319.07 639.00 L 318.75 629.25 ZM 509.78 635.44 C509.26,634.92 511.06,628.76 513.47,622.83 C514.49,620.34 516.89,619.69 516.27,622.07 C515.99,623.13 516.19,624.00 516.72,624.00 C517.18,624.00 517.57,623.54 517.65,622.93 C517.87,623.34 518.39,623.62 519.26,623.97 C523.84,625.82 530.00,624.94 530.00,622.45 L 530.00 622.43 C530.02,622.58 530.03,622.70 530.03,622.81 C530.06,624.30 530.24,624.27 531.52,622.57 C532.32,621.51 533.18,620.84 533.42,621.09 C534.47,622.14 538.67,634.99 538.14,635.53 C537.82,635.85 536.64,634.17 535.51,631.81 L 533.47 627.50 L 514.50 627.50 L 512.45 631.78 C511.32,634.13 510.11,635.78 509.78,635.44 ZM 647.69 635.25 C647.24,634.56 647.13,630.96 647.44,627.25 C647.75,623.54 647.67,616.01 647.25,610.51 L 646.50 600.53 L 642.74 599.92 C635.74,598.79 637.62,598.00 647.33,598.00 C653.11,598.00 657.00,598.40 657.00,599.00 C657.00,599.55 655.68,600.00 654.06,600.00 C652.44,600.00 650.75,600.56 650.31,601.25 C649.86,601.94 649.28,610.15 649.00,619.50 C648.72,628.85 648.14,635.94 647.69,635.25 ZM 438.61 606.57 C438.91,605.79 441.22,603.54 443.74,601.57 C447.87,598.36 448.94,598.00 454.51,598.00 C459.80,598.00 461.30,598.44 464.85,601.01 C467.13,602.66 469.00,604.71 469.00,605.57 C469.00,607.26 467.76,606.81 464.50,603.94 C458.92,599.03 448.88,599.53 442.60,605.04 C438.89,608.31 437.78,608.73 438.61,606.57 ZM 444.12 634.97 C441.82,633.30 439.09,630.56 438.06,628.87 C435.84,625.20 434.61,618.05 435.51,613.95 C436.66,608.73 437.54,610.80 437.43,618.42 C437.31,625.73 437.37,625.90 441.15,629.80 C443.26,631.97 446.34,634.31 447.98,634.99 C449.63,635.67 450.73,636.63 450.43,637.12 C449.56,638.53 448.56,638.19 444.12,634.97 ZM 456.51 636.98 C456.85,636.43 458.79,635.28 460.80,634.44 C462.82,633.59 465.38,632.09 466.49,631.10 C467.59,630.11 469.11,628.95 469.85,628.53 C472.95,626.76 468.75,632.17 464.80,635.03 C460.93,637.84 455.14,639.20 456.51,636.98 ZM 529.24 607.71 C527.84,604.58 527.32,604.00 526.79,604.00 C526.29,604.00 526.21,604.53 526.61,605.17 C527.10,605.97 526.77,606.12 525.54,605.65 C524.55,605.27 523.13,605.48 522.37,606.11 C520.54,607.63 520.55,604.44 522.39,601.12 L 523.71 598.74 L 525.35 601.09 C527.28,603.85 527.40,603.44 525.90,599.15 C526.00,599.35 526.17,599.79 526.33,600.25 C526.73,601.36 527.81,604.12 529.24,607.71 ZM 355.50 235.00 C355.84,234.45 358.09,234.00 360.50,234.00 C362.91,234.00 365.16,234.45 365.50,235.00 C365.88,235.62 363.99,236.00 360.50,236.00 C357.01,236.00 355.12,235.62 355.50,235.00 ZM 328.50 638.00 C328.12,637.39 329.66,637.00 332.44,637.00 C334.95,637.00 337.00,637.45 337.00,638.00 C337.00,638.55 335.23,639.00 333.06,639.00 C330.89,639.00 328.84,638.55 328.50,638.00 ZM 694.92 835.70 C703.68,822.55 715.80,802.41 724.35,787.33 C715.21,803.83 705.39,819.98 694.92,835.70 ZM 318.49 597.74 L 318.50 597.01 L 327.60 597.00 C321.61,597.03 319.31,597.16 318.49,597.74 ZM 537.98 639.67 C538.37,639.85 538.80,639.87 539.33,639.79 C539.99,639.68 540.50,639.61 540.78,639.32 C541.05,639.04 541.13,638.57 540.96,637.70 C541.24,638.60 541.37,639.15 541.31,639.25 C541.08,639.66 540.03,640.00 538.99,640.00 C538.64,640.00 538.31,639.90 537.98,639.67 ZM 713.79 252.56 C708.80,243.17 704.57,235.98 703.66,235.89 C704.59,235.98 708.78,243.10 713.79,252.56 ZM 731.80 290.21 C731.26,289.01 730.70,287.73 730.19,286.49 C729.72,285.37 729.21,284.18 728.67,282.93 C729.51,284.83 730.29,286.63 730.99,288.30 C731.26,288.96 731.53,289.60 731.80,290.21 ZM 527.26 613.78 C525.88,610.26 524.40,607.04 523.96,607.00 L 523.97 607.00 C524.42,607.00 525.89,610.21 527.26,613.78 ZM 616.07 209.80 C615.41,209.93 614.94,210.05 614.72,210.17 C613.29,210.92 613.02,212.17 613.16,220.39 C613.01,212.07 613.28,210.92 614.78,210.12 C614.95,210.02 615.40,209.92 616.07,209.80 ZM 520.04 615.21 C519.83,615.76 519.62,616.30 519.42,616.83 C519.62,616.30 519.83,615.75 520.04,615.21 Z" fill="rgb(215,89,40)"/>
<path d="M 0.00 512.00 L 0.00 0.00 L 512.00 0.00 L 1024.00 0.00 L 1024.00 512.00 L 1024.00 1024.00 L 512.00 1024.00 L 0.00 1024.00 L 0.00 512.00 ZM 694.92 835.70 C740.20,767.67 773.38,691.80 792.40,612.85 C794.31,604.96 796.32,596.03 796.89,593.00 C797.46,589.97 798.59,584.35 799.41,580.50 C808.30,538.73 812.43,482.71 810.87,425.00 C809.07,358.49 796.26,292.13 775.84,243.50 C770.94,231.84 754.58,199.48 753.13,198.58 C752.73,198.33 740.50,199.24 725.95,200.60 C672.14,205.62 655.05,207.04 636.06,208.08 C625.36,208.66 615.79,209.58 614.78,210.12 C613.12,211.00 612.97,212.32 613.22,223.30 L 613.50 235.50 L 658.00 235.64 C682.47,235.71 703.02,235.83 703.66,235.89 C705.62,236.08 723.16,269.52 730.19,286.49 C731.78,290.33 733.74,294.47 734.53,295.69 C740.46,304.73 756.83,360.08 760.95,385.00 C761.45,388.02 762.55,394.39 763.39,399.14 C765.31,410.00 766.52,419.85 768.64,442.00 C771.26,469.21 771.00,520.70 768.11,551.00 C760.99,625.42 745.69,692.94 718.69,769.00 C711.29,789.85 706.07,803.18 704.59,805.00 C703.92,805.83 702.08,809.65 700.50,813.50 C698.93,817.35 695.02,826.30 691.82,833.39 C683.32,852.22 683.73,852.53 694.92,835.70 ZM 342.00 638.07 C342.00,635.65 339.15,634.69 334.54,635.56 C332.58,635.93 328.96,635.92 326.49,635.55 L 322.00 634.88 L 322.00 627.94 L 322.00 621.00 L 331.50 621.00 C340.97,621.00 341.00,620.99 341.00,618.50 C341.00,616.01 340.97,616.00 331.46,616.00 L 321.91 616.00 L 322.21 608.75 L 322.50 601.50 L 332.25 601.21 C341.18,600.95 342.00,600.76 342.00,598.96 C342.00,597.12 341.26,597.00 330.25,597.00 L 318.50 597.01 L 318.21 618.50 L 317.91 640.00 L 329.96 640.00 C341.19,640.00 342.00,639.87 342.00,638.07 ZM 462.62 637.60 C467.42,635.36 473.00,629.75 473.00,627.16 C473.00,624.93 468.85,626.03 466.45,628.88 C459.19,637.51 447.75,636.69 441.27,627.08 C437.76,621.87 438.07,613.58 441.97,608.20 C445.76,602.96 447.66,602.00 454.18,602.00 C459.96,602.01 465.06,604.38 466.97,607.95 C468.01,609.88 473.01,610.96 472.99,609.25 C472.98,607.33 468.73,602.39 464.82,599.75 C460.87,597.08 459.89,596.86 453.41,597.18 C447.44,597.47 445.72,597.98 442.55,600.39 C440.39,602.04 437.77,605.44 436.40,608.38 C430.94,620.11 435.29,632.92 446.50,638.10 C451.88,640.60 456.49,640.45 462.62,637.60 ZM 512.68 633.99 L 514.86 628.50 L 523.78 628.21 L 532.71 627.93 L 534.91 633.96 C536.54,638.44 537.60,640.00 538.99,640.00 C540.03,640.00 541.08,639.66 541.31,639.25 C541.55,638.84 538.62,630.85 534.80,621.50 C530.98,612.15 527.17,602.59 526.33,600.25 C525.50,597.91 524.47,596.00 524.04,596.00 C522.72,596.00 505.85,637.95 506.65,639.24 C507.98,641.39 510.66,639.06 512.68,633.99 ZM 581.56 632.00 C582.20,624.72 582.45,624.00 584.38,624.03 C585.86,624.06 588.28,626.49 592.34,632.03 C596.84,638.16 598.74,640.00 600.59,640.00 C601.92,640.00 603.00,639.66 603.00,639.25 C603.00,638.83 600.51,635.18 597.47,631.14 L 591.93 623.78 L 595.75 621.89 C605.00,617.31 605.54,604.35 596.70,598.96 C594.21,597.44 591.67,597.01 585.25,597.00 L 577.00 597.00 L 577.00 618.50 C577.00,639.08 577.08,640.00 578.93,640.00 C580.62,640.00 580.95,639.00 581.56,632.00 ZM 650.77 620.24 L 651.04 601.00 L 655.52 601.00 C659.33,601.00 660.00,600.70 660.00,599.00 C660.00,597.11 659.33,597.00 648.00,597.00 C636.78,597.00 636.00,597.13 636.00,598.95 C636.00,600.56 636.82,600.94 640.75,601.20 L 645.50 601.50 L 645.76 619.50 C645.90,629.40 646.24,638.10 646.50,638.82 C646.77,639.55 647.78,640.00 648.75,639.81 C650.33,639.51 650.53,637.65 650.77,620.24 ZM 399.00 626.00 C399.00,624.13 398.33,624.00 389.00,624.00 C379.67,624.00 379.00,624.13 379.00,626.00 C379.00,627.87 379.67,628.00 389.00,628.00 C398.33,628.00 399.00,627.87 399.00,626.00 ZM 433.47 531.95 C437.26,530.52 441.33,527.91 444.57,524.84 C447.39,522.18 449.97,520.00 450.30,520.00 C450.63,520.00 451.04,522.81 451.20,526.25 L 451.50 532.50 L 457.50 532.50 L 463.50 532.50 L 463.76 462.75 L 464.01 393.00 L 457.51 393.00 L 451.00 393.00 L 451.00 428.64 L 451.00 464.27 L 445.97 459.57 C443.20,456.98 438.36,453.67 435.22,452.21 C430.31,449.94 428.15,449.57 420.00,449.56 C411.42,449.55 409.85,449.85 403.80,452.70 C377.49,465.07 371.80,501.70 392.91,522.81 C404.43,534.33 418.71,537.55 433.47,531.95 ZM 548.12 529.36 C551.77,527.64 556.58,524.56 558.83,522.53 C562.74,519.00 569.00,510.57 569.00,508.83 C569.00,508.37 565.84,508.00 561.98,508.00 C555.18,508.00 554.82,508.13 550.63,511.99 C541.16,520.72 529.67,522.68 518.24,517.54 C514.60,515.90 510.47,513.05 508.39,510.75 C504.93,506.92 501.07,499.84 501.02,497.25 C501.00,496.27 508.88,496.00 537.12,496.00 L 573.24 496.00 L 572.82 487.25 C572.27,475.91 569.25,469.09 561.23,461.07 C554.13,453.97 547.41,450.42 538.19,448.89 C519.46,445.80 501.72,453.86 492.46,469.67 C491.08,472.01 489.22,477.20 488.32,481.21 C484.09,499.89 493.51,519.64 510.83,528.41 C518.11,532.10 522.22,532.92 532.50,532.69 C540.28,532.53 542.40,532.07 548.12,529.36 ZM 357.00 526.01 L 357.00 520.03 L 325.75 519.76 L 294.50 519.50 L 294.50 497.50 L 294.50 475.50 L 324.75 475.24 L 355.00 474.97 L 355.00 469.00 L 355.00 463.03 L 324.75 462.76 L 294.50 462.50 L 294.50 440.00 L 294.50 417.50 L 325.75 417.24 L 357.00 416.97 L 357.00 410.99 L 357.00 405.00 L 319.50 405.00 L 282.00 405.00 L 282.00 468.50 L 282.00 532.00 L 319.50 532.00 L 357.00 532.00 L 357.00 526.01 ZM 608.08 508.50 C608.72,483.27 609.57,478.66 614.95,471.23 C619.47,464.99 625.75,461.77 634.36,461.28 C640.26,460.94 642.06,461.23 644.70,462.89 C651.21,466.99 651.45,468.26 652.00,501.50 L 652.50 531.50 L 658.80 531.80 L 665.11 532.10 L 664.80 500.80 C664.51,470.34 664.44,469.36 662.13,464.26 C659.50,458.44 653.66,452.59 648.20,450.31 C645.99,449.39 641.13,448.77 635.56,448.72 C624.98,448.61 620.87,450.24 612.86,457.73 L 608.00 462.27 L 608.00 456.14 L 608.00 450.00 L 601.50 450.00 L 595.00 450.00 L 595.00 491.05 L 595.00 532.10 L 601.25 531.80 L 607.50 531.50 L 608.08 508.50 ZM 389.97 291.02 C396.37,286.46 397.24,278.28 391.87,273.21 L 389.00 270.51 L 389.01 205.00 C389.01,131.27 388.91,132.53 396.78,114.27 C407.83,88.62 427.09,71.51 454.00,63.44 C463.61,60.55 476.55,59.00 491.01,59.00 C526.11,59.00 551.19,68.41 570.07,88.66 C578.59,97.80 584.56,108.10 589.66,122.50 L 592.50 130.50 L 592.79 199.91 L 593.08 269.32 L 590.00 272.50 C582.16,280.59 587.02,293.00 598.04,293.00 C607.05,293.00 612.40,281.59 606.75,274.41 L 604.50 271.55 L 603.98 201.03 C603.38,120.32 603.81,124.42 593.81,104.13 C581.76,79.64 562.92,63.52 535.50,54.24 C521.40,49.46 513.80,48.50 490.50,48.52 C468.54,48.54 464.69,49.02 449.00,53.71 C413.65,64.28 388.96,92.47 379.54,133.00 C378.28,138.43 378.02,150.15 378.00,204.50 L 377.96 269.50 L 374.90 274.00 C370.79,280.02 371.28,285.03 376.42,289.75 C380.64,293.62 385.67,294.09 389.97,291.02 ZM 369.00 235.06 C369.00,233.99 368.56,232.84 368.01,232.51 C367.01,231.89 335.47,234.57 327.09,235.99 C324.19,236.48 331.04,236.81 345.75,236.88 C368.14,237.00 369.00,236.93 369.00,235.06 ZM 581.25 235.33 C581.66,235.09 582.00,230.18 582.00,224.44 L 582.00 214.00 L 579.17 214.00 C577.61,214.00 561.74,215.36 543.92,217.02 C526.09,218.69 496.65,221.40 478.50,223.05 C460.35,224.70 435.83,226.93 424.00,228.01 C412.17,229.09 401.49,229.98 400.25,229.99 C398.45,230.00 398.00,230.57 398.00,232.83 C398.00,234.39 398.34,236.02 398.75,236.45 C399.52,237.25 579.90,236.15 581.25,235.33 ZM 519.26 623.97 C517.28,623.18 517.15,622.75 518.10,620.29 C518.69,618.75 520.07,615.14 521.16,612.25 C522.25,609.36 523.51,607.00 523.96,607.00 C524.83,607.00 530.00,620.22 530.00,622.45 C530.00,624.94 523.84,625.82 519.26,623.97 ZM 581.86 618.25 C581.41,615.73 581.29,604.41 581.71,603.31 C582.05,602.43 584.16,602.00 588.11,602.00 C595.64,602.00 598.00,604.01 598.00,610.43 C598.00,616.47 594.87,619.00 587.37,619.00 C584.41,619.00 581.94,618.66 581.86,618.25 ZM 416.33 520.97 C407.30,519.16 400.00,513.30 395.84,504.51 C389.09,490.23 394.19,473.47 407.77,465.33 C412.08,462.75 413.35,462.50 422.00,462.50 C430.55,462.50 431.97,462.77 436.14,465.23 C441.35,468.29 445.04,472.29 448.29,478.38 C451.49,484.38 451.46,498.68 448.24,504.72 C441.64,517.11 429.06,523.52 416.33,520.97 ZM 501.02 483.75 C501.07,481.09 504.97,474.04 508.65,469.96 C514.26,463.73 520.75,461.02 530.00,461.02 C535.77,461.02 538.65,461.56 542.50,463.36 C550.52,467.11 560.28,479.21 558.67,483.41 C558.13,484.81 554.69,485.00 529.53,485.00 C507.36,485.00 501.00,484.72 501.02,483.75 Z" fill="rgb(254,254,254)"/>
</g>
</svg>